<?xml version="1.0" encoding="utf-8"?>
<!-- Generator: Adobe Illustrator 23.0.3, SVG Export Plug-In . SVG Version: 6.00 Build 0)  -->
<svg version="1.1" id="Layer_1" xmlns="http://www.w3.org/2000/svg" xmlns:xlink="http://www.w3.org/1999/xlink" x="0px" y="0px"
	 viewBox="0 0 102 102" style="enable-background:new 0 0 102 102;" xml:space="preserve">
<style type="text/css">
	.st0{fill:#FFFFFF;}
	.st1{fill:#EDF7F6;}
	.st2{fill:#25B99A;}
</style>
<g>
	<path class="st0" d="M86.7,57.5c0-26.4-19.8-54.4-36.3-54.4c-16.5,0-36.3,28-36.3,54.4c0,26.4,16.2,41.2,36.3,41.2
		C70.4,98.8,86.7,83.9,86.7,57.5"/>
	<path class="st1" d="M15.8,58.8c0.4,11.8,4.3,20.9,10.1,27.1c6.2,6.7,14.8,10.2,24.4,10.2c9.6,0,18.2-3.5,24.4-10.2
		c5.9-6.3,9.7-15.4,10.1-27.1c-4.6,17.7-18.4,27.4-34.6,27.4S20.5,76.5,15.8,58.8"/>
	<path class="st2" d="M89.3,49.6c0-0.4,0-0.7-0.2-1.1c-1.6-10.3-5.8-20.9-11.8-29.8c-3.7-5.5-8-10.1-12.4-13.3C60,1.8,55.1,0,50.4,0
		c-4.7,0-9.6,1.8-14.5,5.4c-6.7,4.9-12.9,12.7-17.5,21.9C13.6,37.2,11,47.6,11,57.5c0,13.4,4,24.6,11.5,32.7
		c7.1,7.5,17,11.7,27.9,11.7c0,0,0,0,0.1,0c10.9,0,20.8-4.2,27.9-11.7c7.5-8,11.5-19.3,11.5-32.7C89.8,54.9,89.6,52.3,89.3,49.6z
		 M78.9,53.6l-7.5-7.1c-0.6-0.6-1.5-0.9-2.3-0.8c-0.8,0.1-1.6,0.5-2.1,1.2l-4.7,6.6l-6.2-4c-0.7-0.4-1.5-0.6-2.3-0.4
		c-0.8,0.2-1.5,0.7-1.9,1.5l-1.1,2.1l-3-2c-0.7-0.4-1.4-0.6-2.2-0.4c-0.8,0.2-1.4,0.6-1.9,1.3c-0.9,1.4-0.5,3.2,0.8,4.1l5.7,3.8
		c0.7,0.5,1.5,0.6,2.4,0.4c0.8-0.2,1.5-0.7,1.9-1.5l1.1-2.1l5.8,3.7c1.3,0.9,3.1,0.5,4-0.8l4.4-6.1L77,60c0.6,0.5,1.3,0.8,2,0.8
		l0.1,0c0.8,0,1.6-0.4,2.1-1l2.2-2.6c0,0.1,0,0.2,0,0.3c0,11.7-3.4,21.5-9.8,28.4c-6,6.3-14,9.7-23.3,9.7c-9.3,0-17.4-3.4-23.3-9.7
		c-6.4-6.8-9.8-16.6-9.8-28.4c0-11.6,4.3-24.8,11.4-35.3c3.3-4.9,7.1-8.9,10.9-11.7c3.8-2.7,7.5-4.2,10.8-4.2c0,0,0,0,0,0
		c3.3,0,7,1.4,10.7,4.2c5.8,4.2,11.5,11.4,15.5,19.6c3,6,5.1,12.5,6.1,18.9L78.9,53.6z"/>
</g>
</svg>
