<svg width="1200" height="600" viewBox="0 0 1200 600" fill="none" xmlns="http://www.w3.org/2000/svg">
<rect x="12" y="12" width="1176" height="576" rx="58" fill="white" stroke="white" stroke-width="24"/>
<rect x="31" y="32" width="1138" height="534" rx="52" fill="white" stroke="#101010" stroke-width="24"/>
<path d="M145.686 422V201.06H219.878C233.153 201.06 244.063 203.606 252.61 208.698C261.157 213.607 267.521 220.881 271.704 230.519C275.886 239.975 277.977 251.522 277.977 265.16C277.977 282.253 275.159 295.346 269.521 304.438C263.884 313.349 256.247 319.531 246.609 322.986C236.972 326.441 226.152 328.169 214.15 328.169H194.511V422H145.686ZM194.511 294.073H210.877C216.878 294.073 221.424 292.982 224.515 290.8C227.607 288.618 229.607 285.345 230.516 280.98C231.607 276.616 232.153 271.07 232.153 264.342C232.153 258.705 231.698 253.795 230.789 249.612C230.061 245.248 228.152 241.793 225.061 239.247C221.969 236.701 217.151 235.429 210.604 235.429H194.511V294.073ZM301.514 422V201.06H350.339V388.995H401.073V422H301.514ZM477 425.546C462.089 425.546 450.178 422.636 441.268 416.817C432.357 410.817 425.993 402.634 422.174 392.269C418.355 381.722 416.446 369.72 416.446 356.264C416.628 350.808 417.173 345.535 418.083 340.443C419.174 335.17 420.719 330.351 422.72 325.987C424.902 321.441 427.538 317.531 430.63 314.258C433.903 310.803 437.722 307.984 442.086 305.802C436.449 301.62 431.448 295.619 427.084 287.8C422.72 279.798 420.356 269.706 419.992 257.523C419.81 245.157 421.81 234.519 425.993 225.609C430.357 216.699 436.813 209.88 445.359 205.152C453.906 200.424 464.453 198.06 477 198.06C489.729 198.06 500.276 200.515 508.641 205.424C517.187 210.152 523.552 216.971 527.734 225.882C531.917 234.61 533.826 245.157 533.462 257.523C533.28 269.888 531.098 280.071 526.916 288.072C522.734 295.892 517.733 301.801 511.914 305.802C516.278 307.984 520.006 310.803 523.097 314.258C526.37 317.531 529.007 321.441 531.007 325.987C533.19 330.351 534.826 335.17 535.917 340.443C537.008 345.535 537.554 350.808 537.554 356.264C537.917 369.72 536.099 381.722 532.099 392.269C528.28 402.634 521.915 410.817 513.005 416.817C504.095 422.636 492.093 425.546 477 425.546ZM477 391.996C481.91 391.996 485.456 390.177 487.638 386.541C489.82 382.904 491.184 378.63 491.729 373.721C492.275 368.629 492.548 363.992 492.548 359.81C492.729 354.172 492.457 348.717 491.729 343.444C491.184 338.17 489.82 333.897 487.638 330.624C485.456 327.169 481.91 325.441 477 325.441C472.272 325.441 468.817 327.169 466.635 330.624C464.453 333.897 462.998 338.17 462.271 343.444C461.725 348.535 461.452 353.991 461.452 359.81C461.452 363.992 461.725 368.629 462.271 373.721C462.816 378.812 464.18 383.176 466.362 386.813C468.726 390.268 472.272 391.996 477 391.996ZM477 289.436C480.091 289.436 482.637 288.254 484.637 285.89C486.638 283.344 488.092 279.617 489.002 274.707C490.093 269.797 490.638 263.705 490.638 256.431C490.638 248.976 489.456 243.066 487.092 238.702C484.91 234.338 481.546 232.155 477 232.155C472.454 232.155 468.908 234.338 466.362 238.702C463.998 243.066 462.816 248.885 462.816 256.159C462.816 263.432 463.271 269.615 464.18 274.707C465.271 279.617 466.908 283.344 469.09 285.89C471.272 288.254 473.909 289.436 477 289.436ZM565.781 340.443V312.076H636.427V340.443H565.781ZM689.819 422V237.338H656.541V201.06H771.921V237.338H738.916V422H689.819ZM770.879 422L812.612 201.06H868.256L909.444 422H864.437L857.073 375.357H824.614L816.976 422H770.879ZM828.978 346.171H852.436L840.707 259.977L828.978 346.171ZM985.841 425.273C970.567 425.273 958.474 422.091 949.564 415.726C940.835 409.362 934.562 400.452 930.743 388.995C927.106 377.357 925.287 363.992 925.287 348.899V274.707C925.287 259.068 927.288 245.521 931.288 234.065C935.289 222.609 942.108 213.789 951.746 207.607C961.565 201.242 974.84 198.06 991.569 198.06C1007.94 198.06 1020.76 200.787 1030.03 206.243C1039.49 211.698 1046.21 219.245 1050.21 228.882C1054.21 238.52 1056.21 249.794 1056.21 262.705V276.889H1008.48V258.886C1008.48 254.158 1008.12 249.794 1007.39 245.794C1006.84 241.793 1005.39 238.611 1003.03 236.247C1000.84 233.701 997.207 232.428 992.115 232.428C986.842 232.428 983.023 233.883 980.659 236.792C978.295 239.52 976.749 242.975 976.022 247.157C975.476 251.34 975.204 255.704 975.204 260.25V362.537C975.204 367.447 975.658 372.084 976.567 376.448C977.658 380.631 979.477 384.086 982.023 386.813C984.75 389.359 988.569 390.632 993.479 390.632C998.57 390.632 1002.48 389.268 1005.21 386.541C1007.94 383.813 1009.84 380.267 1010.94 375.903C1012.03 371.538 1012.57 366.901 1012.57 361.992V336.079H992.661V307.439H1056.49V422H1024.3L1021.57 403.725C1018.66 409.907 1014.39 415.09 1008.75 419.272C1003.12 423.273 995.479 425.273 985.841 425.273Z" fill="black"/>
</svg>
