<svg width="1200" height="600" viewBox="0 0 1200 600" fill="none" xmlns="http://www.w3.org/2000/svg">
<rect x="12" y="12" width="1176" height="576" rx="58" fill="white" stroke="white" stroke-width="24"/>
<rect x="31" y="32" width="1138" height="534" rx="52" fill="white" stroke="#101010" stroke-width="24"/>
<path d="M133.433 422V201.06H207.625C220.9 201.06 231.81 203.606 240.357 208.698C248.904 213.607 255.268 220.881 259.451 230.519C263.633 239.975 265.724 251.522 265.724 265.16C265.724 282.253 262.906 295.346 257.268 304.438C251.631 313.349 243.994 319.531 234.356 322.986C224.718 326.441 213.899 328.169 201.897 328.169H182.258V422H133.433ZM182.258 294.073H198.624C204.625 294.073 209.171 292.982 212.262 290.8C215.353 288.618 217.354 285.345 218.263 280.98C219.354 276.616 219.9 271.07 219.9 264.342C219.9 258.705 219.445 253.795 218.536 249.612C217.808 245.248 215.899 241.793 212.808 239.247C209.716 236.701 204.897 235.429 198.351 235.429H182.258V294.073ZM289.261 422V201.06H338.086V388.995H388.82V422H289.261ZM464.747 425.546C449.836 425.546 437.925 422.636 429.015 416.817C420.104 410.817 413.74 402.634 409.921 392.269C406.102 381.722 404.193 369.72 404.193 356.264C404.375 350.808 404.92 345.535 405.83 340.443C406.921 335.17 408.466 330.351 410.467 325.987C412.649 321.441 415.285 317.531 418.377 314.258C421.65 310.803 425.469 307.984 429.833 305.802C424.196 301.62 419.195 295.619 414.831 287.8C410.467 279.798 408.103 269.706 407.739 257.523C407.557 245.157 409.557 234.519 413.74 225.609C418.104 216.699 424.559 209.88 433.106 205.152C441.653 200.424 452.2 198.06 464.747 198.06C477.476 198.06 488.023 200.515 496.388 205.424C504.934 210.152 511.299 216.971 515.481 225.882C519.664 234.61 521.573 245.157 521.209 257.523C521.027 269.888 518.845 280.071 514.663 288.072C510.48 295.892 505.48 301.801 499.661 305.802C504.025 307.984 507.753 310.803 510.844 314.258C514.117 317.531 516.754 321.441 518.754 325.987C520.936 330.351 522.573 335.17 523.664 340.443C524.755 345.535 525.301 350.808 525.301 356.264C525.664 369.72 523.846 381.722 519.845 392.269C516.027 402.634 509.662 410.817 500.752 416.817C491.841 422.636 479.84 425.546 464.747 425.546ZM464.747 391.996C469.657 391.996 473.203 390.177 475.385 386.541C477.567 382.904 478.931 378.63 479.476 373.721C480.022 368.629 480.294 363.992 480.294 359.81C480.476 354.172 480.204 348.717 479.476 343.444C478.931 338.17 477.567 333.897 475.385 330.624C473.203 327.169 469.657 325.441 464.747 325.441C460.019 325.441 456.564 327.169 454.382 330.624C452.2 333.897 450.745 338.17 450.017 343.444C449.472 348.535 449.199 353.991 449.199 359.81C449.199 363.992 449.472 368.629 450.017 373.721C450.563 378.812 451.927 383.176 454.109 386.813C456.473 390.268 460.019 391.996 464.747 391.996ZM464.747 289.436C467.838 289.436 470.384 288.254 472.384 285.89C474.385 283.344 475.839 279.617 476.748 274.707C477.84 269.797 478.385 263.705 478.385 256.431C478.385 248.976 477.203 243.066 474.839 238.702C472.657 234.338 469.293 232.155 464.747 232.155C460.201 232.155 456.655 234.338 454.109 238.702C451.745 243.066 450.563 248.885 450.563 256.159C450.563 263.432 451.018 269.615 451.927 274.707C453.018 279.617 454.654 283.344 456.837 285.89C459.019 288.254 461.655 289.436 464.747 289.436ZM553.528 340.443V312.076H624.174V340.443H553.528ZM677.565 422V237.338H644.288V201.06H759.668V237.338H726.663V422H677.565ZM834.542 425.273C819.267 425.273 807.174 422.091 798.264 415.726C789.536 409.362 783.262 400.452 779.443 388.995C775.806 377.357 773.988 363.992 773.988 348.899V274.707C773.988 259.068 775.988 245.521 779.989 234.065C783.989 222.609 790.808 213.789 800.446 207.607C810.266 201.242 823.54 198.06 840.27 198.06C856.636 198.06 869.456 200.787 878.73 206.243C888.186 211.698 894.914 219.245 898.914 228.882C902.915 238.52 904.915 249.794 904.915 262.705V276.889H857.181V258.886C857.181 254.158 856.818 249.794 856.09 245.794C855.545 241.793 854.09 238.611 851.726 236.247C849.544 233.701 845.907 232.428 840.815 232.428C835.542 232.428 831.723 233.883 829.359 236.792C826.995 239.52 825.45 242.975 824.722 247.157C824.177 251.34 823.904 255.704 823.904 260.25V362.537C823.904 367.447 824.359 372.084 825.268 376.448C826.359 380.631 828.177 384.086 830.723 386.813C833.451 389.359 837.269 390.632 842.179 390.632C847.271 390.632 851.18 389.268 853.908 386.541C856.636 383.813 858.545 380.267 859.636 375.903C860.727 371.538 861.273 366.901 861.273 361.992V336.079H841.361V307.439H905.188V422H873.002L870.274 403.725C867.365 409.907 863.091 415.09 857.454 419.272C851.817 423.273 844.18 425.273 834.542 425.273ZM935.746 422V201.06H996.573C1011.48 201.06 1024.39 202.697 1035.31 205.97C1046.22 209.243 1054.67 215.153 1060.67 223.7C1066.86 232.064 1069.95 243.975 1069.95 259.432C1069.95 268.524 1069.22 276.616 1067.76 283.708C1066.31 290.8 1063.58 296.983 1059.58 302.256C1055.76 307.348 1050.22 311.621 1042.94 315.076L1073.22 422H1022.76L998.482 322.986H984.571V422H935.746ZM984.571 294.891H998.21C1005.12 294.891 1010.48 293.709 1014.3 291.345C1018.12 288.8 1020.76 285.254 1022.21 280.708C1023.85 275.98 1024.67 270.343 1024.67 263.796C1024.67 254.34 1022.94 246.976 1019.49 241.702C1016.03 236.429 1009.67 233.792 1000.39 233.792H984.571V294.891Z" fill="black"/>
</svg>
