<?xml version="1.0" standalone="no"?>
<!DOCTYPE svg PUBLIC "-//W3C//DTD SVG 20010904//EN"
 "http://www.w3.org/TR/2001/REC-SVG-20010904/DTD/svg10.dtd">
<svg version="1.0" xmlns="http://www.w3.org/2000/svg"
 width="574.000000pt" height="574.000000pt" viewBox="0 0 574.000000 574.000000"
 preserveAspectRatio="xMidYMid meet">
<metadata>
Created by potrace 1.14, written by Peter Selinger 2001-2017
</metadata>
<g transform="translate(0.000000,574.000000) scale(0.100000,-0.100000)"
fill="#000000" stroke="none">
<path d="M2863 5287 c-4 -6 -1 -7 7 -2 9 5 11 4 6 -4 -4 -6 -13 -8 -19 -4 -19
12 -61 12 -76 -1 -12 -8 -13 -8 -7 2 12 20 -46 6 -62 -15 -12 -16 -13 -16 -10
-1 2 9 -1 16 -7 16 -28 -3 -44 -12 -48 -27 -4 -14 -5 -14 -6 2 -1 19 -16 23
-26 7 -3 -5 -1 -10 6 -10 7 0 9 -3 5 -7 -4 -5 -14 1 -22 11 -8 11 -14 14 -14
7 0 -7 -4 -10 -9 -7 -5 3 -14 -1 -21 -9 -8 -9 -8 -15 -2 -15 6 0 13 5 15 10 3
6 4 5 3 -2 -2 -7 -11 -13 -22 -14 -34 -2 -39 -4 -26 -12 7 -5 -8 -8 -35 -7
-27 1 -54 -3 -62 -9 -11 -8 -13 -8 -8 1 5 8 -2 12 -20 12 -16 0 -38 2 -51 5
-13 3 -20 1 -17 -5 4 -5 -3 -9 -14 -9 -12 0 -21 -4 -21 -10 0 -5 6 -7 14 -4 8
3 16 1 20 -4 8 -13 -26 -11 -43 2 -11 9 -13 6 -6 -14 7 -25 7 -25 -10 -5 -9
11 -14 14 -10 8 3 -7 1 -14 -4 -14 -6 -1 -17 -2 -23 -3 -7 -1 -12 -10 -12 -19
2 -17 1 -17 -17 -1 -18 16 -19 16 -19 0 0 -10 -9 -20 -20 -23 -21 -6 -22 -30
-1 -25 15 3 14 -3 -5 -18 -12 -11 -15 -11 -12 1 4 19 -52 21 -59 3 -3 -8 -10
-11 -16 -7 -6 4 -7 1 -2 -7 5 -8 3 -11 -6 -8 -7 2 -25 -6 -39 -19 -22 -21 -23
-25 -11 -46 10 -17 11 -19 0 -9 -17 16 -29 15 -29 -3 0 -8 -5 -15 -11 -15 -5
0 -8 -4 -4 -10 3 -5 13 -6 23 -3 9 3 14 3 10 -1 -3 -4 -14 -9 -23 -10 -9 -1
-20 -8 -25 -15 -5 -10 -9 -10 -15 -2 -5 8 -14 4 -30 -13 -13 -14 -25 -22 -28
-20 -3 3 -8 0 -13 -7 -4 -8 -3 -10 4 -5 7 4 12 1 12 -7 0 -8 -7 -18 -15 -21
-13 -4 -14 -10 -5 -26 8 -14 8 -20 0 -20 -6 0 -8 -5 -5 -10 4 -6 11 -7 17 -4
7 4 8 2 4 -5 -4 -6 -12 -8 -18 -5 -8 5 -9 1 -4 -12 4 -10 4 -16 1 -12 -13 13
-43 -25 -40 -50 3 -25 2 -25 -12 -7 -9 11 -13 13 -10 5 9 -25 14 -46 10 -37
-12 20 -57 -17 -58 -48 0 -5 -4 -16 -8 -22 -5 -7 -6 -16 -4 -21 3 -4 -3 -24
-13 -44 -17 -35 -17 -37 2 -55 15 -16 16 -20 4 -20 -8 0 -12 5 -9 10 3 5 0 8
-8 5 -8 -3 -14 -13 -14 -24 0 -10 -4 -25 -9 -32 -13 -22 3 -27 20 -6 8 10 12
12 8 4 -4 -8 -14 -24 -23 -34 -15 -18 -15 -19 1 -13 10 3 20 1 24 -5 4 -7 3
-8 -4 -4 -8 4 -12 0 -12 -11 0 -15 -2 -16 -10 -3 -7 11 -9 7 -7 -15 2 -23 7
-29 22 -27 16 2 17 1 5 -7 -8 -5 -18 -7 -22 -5 -4 3 -8 -2 -8 -11 0 -10 5 -13
13 -9 7 5 6 0 -3 -11 -14 -17 -13 -17 10 -12 14 4 19 4 13 1 -7 -3 -13 -10
-13 -15 0 -6 6 -7 13 -3 9 5 9 3 -1 -7 -10 -11 -14 -11 -21 -1 -5 9 -8 2 -9
-17 0 -17 4 -31 9 -31 5 0 9 -5 9 -11 0 -5 -5 -7 -10 -4 -16 10 -7 -18 10 -32
13 -12 13 -12 -1 -8 -17 6 -19 1 -21 -85 -1 -30 -6 -58 -12 -62 -8 -5 -7 -8 2
-8 6 0 12 -5 12 -11 0 -5 -3 -8 -8 -5 -4 2 -8 -9 -8 -25 -1 -16 2 -29 7 -29 4
0 6 9 4 20 -2 11 0 18 5 15 5 -3 6 -15 4 -28 -9 -37 -10 -87 -2 -88 4 -1 12
-2 17 -3 5 0 13 -5 18 -10 5 -5 3 -6 -4 -2 -7 4 -13 2 -13 -4 0 -6 -4 -8 -10
-5 -5 3 -10 1 -10 -4 0 -6 3 -11 8 -11 4 0 8 -10 8 -22 1 -13 5 -34 9 -48 4
-14 8 -34 10 -45 2 -11 4 -22 5 -25 1 -3 2 -8 1 -12 0 -5 4 -8 10 -8 8 0 8 -4
2 -12 -6 -7 -10 -21 -10 -31 0 -13 6 -16 21 -11 16 4 18 3 6 -5 -16 -11 -22
-69 -8 -87 4 -6 2 -11 -7 -12 -8 -1 -22 -3 -30 -4 -8 -1 -15 -5 -15 -10 0 -5
-6 -6 -12 -2 -7 4 -10 4 -6 -1 4 -4 3 -14 -3 -22 -9 -10 -7 -13 7 -13 16 0 16
-2 4 -9 -8 -6 -18 -7 -24 -4 -5 4 -7 -1 -3 -11 4 -10 7 -20 7 -22 0 -3 5 -2
12 2 7 4 8 3 4 -5 -5 -8 -12 -9 -19 -2 -9 6 -12 2 -13 -15 -2 -18 1 -22 10
-15 8 7 12 4 12 -9 0 -10 -4 -16 -8 -14 -5 3 -6 -5 -4 -18 3 -13 5 -29 5 -36
1 -8 6 -10 14 -6 8 5 8 2 -2 -9 -11 -14 -11 -20 0 -33 10 -13 10 -17 -2 -25
-9 -5 -10 -9 -2 -9 8 0 11 -13 9 -35 -2 -19 0 -32 5 -29 5 3 7 9 4 13 -2 5 2
17 11 27 14 18 15 18 4 -3 -6 -13 -8 -23 -5 -23 3 0 1 -9 -5 -20 -7 -14 -7
-20 0 -20 5 0 9 -3 8 -7 -3 -16 15 -43 24 -37 6 4 8 -2 3 -15 -4 -12 -2 -21 4
-21 6 0 11 5 11 11 0 5 5 7 11 3 7 -4 7 -9 2 -13 -12 -7 -13 -41 -1 -41 4 0 7
-3 7 -7 -4 -22 2 -33 14 -27 9 5 9 4 0 -6 -9 -10 -8 -21 8 -51 19 -39 31 -51
27 -27 -2 7 -9 19 -15 26 -7 7 -13 17 -13 22 0 10 27 7 37 -5 4 -4 2 -5 -4 -1
-15 8 -18 -10 -4 -18 11 -7 9 -25 -3 -45 -7 -11 -5 -13 7 -8 9 3 19 1 23 -5 4
-7 3 -8 -4 -4 -7 4 -12 2 -12 -4 0 -6 -5 -8 -12 -4 -7 4 -8 3 -4 -5 4 -6 12
-8 18 -5 7 4 8 2 4 -5 -10 -16 13 -43 28 -34 7 5 5 1 -4 -7 -9 -9 -15 -21 -12
-28 2 -6 -4 -12 -14 -12 -16 0 -16 -1 1 -20 13 -14 14 -20 5 -20 -19 0 -6 -10
21 -16 46 -10 62 -9 66 6 4 12 3 12 -5 2 -7 -11 -11 -10 -16 4 -3 9 -4 19 -1
22 3 3 5 1 5 -4 0 -19 40 -12 55 8 16 23 14 25 31 -31 2 -7 11 -10 20 -7 14 5
15 4 4 -9 -10 -12 -10 -15 1 -15 11 0 11 -2 -1 -10 -12 -8 -12 -10 5 -11 11 0
14 -3 8 -6 -10 -3 -9 -10 2 -26 8 -12 14 -24 14 -27 0 -3 3 -13 7 -23 5 -14 9
-15 20 -6 17 14 19 -2 2 -19 -9 -9 -9 -12 1 -12 7 0 10 -4 7 -8 -2 -4 0 -14 5
-22 8 -12 12 -12 16 -2 2 6 9 9 14 6 6 -3 2 -12 -8 -21 -10 -8 -13 -12 -6 -9
6 4 14 2 18 -4 3 -5 1 -10 -5 -10 -6 0 -2 -10 9 -22 11 -11 18 -25 15 -29 -9
-14 34 -48 56 -44 11 2 18 0 15 -5 -3 -5 -15 -7 -26 -5 -13 3 -19 0 -16 -8 2
-7 13 -11 23 -9 18 2 18 2 -1 -10 -19 -12 -19 -12 4 -18 23 -5 40 -40 19 -40
-6 0 -8 7 -4 15 3 9 0 15 -8 15 -9 0 -12 -7 -9 -20 3 -11 10 -20 15 -20 5 0 6
-4 3 -10 -7 -12 7 -13 21 -3 5 5 1 0 -10 -10 -22 -20 -14 -36 9 -17 8 7 15 9
15 5 0 -4 -8 -14 -17 -21 -17 -12 -17 -14 5 -34 25 -23 27 -31 11 -47 -8 -8
-7 -17 2 -34 7 -13 12 -29 11 -36 -1 -6 2 -14 7 -18 6 -3 8 -12 5 -19 -3 -8
-1 -17 5 -21 7 -4 9 1 5 12 -5 14 -4 15 4 4 6 -9 7 -21 2 -31 -5 -9 -5 -22 0
-30 5 -8 5 -21 1 -29 -5 -9 -6 -22 -3 -30 3 -10 0 -11 -9 -5 -11 6 -10 3 1
-11 8 -10 10 -16 4 -12 -6 3 -16 -5 -23 -19 -8 -19 -8 -23 0 -18 7 4 10 1 7
-7 -3 -8 -10 -13 -16 -12 -8 2 -8 -5 -1 -24 9 -23 7 -30 -13 -44 -12 -10 -20
-21 -16 -24 4 -4 3 -17 -1 -29 -6 -14 -4 -25 6 -35 8 -7 12 -16 8 -19 -3 -4
-10 0 -14 7 -6 9 -10 2 -13 -20 -3 -20 -1 -37 6 -41 7 -5 4 -8 -6 -8 -10 0
-18 -5 -18 -11 0 -5 6 -7 13 -4 6 4 1 -3 -13 -15 -14 -12 -20 -19 -14 -16 6 3
11 -1 11 -8 0 -8 -5 -12 -11 -10 -6 2 -24 -8 -41 -22 -16 -14 -24 -23 -17 -19
6 3 12 1 12 -4 0 -6 -9 -11 -19 -11 -12 0 -21 -9 -25 -25 -4 -14 -11 -25 -17
-25 -7 0 -6 -6 2 -17 13 -15 12 -15 -10 -3 -22 11 -23 10 -17 -5 5 -14 4 -16
-7 -7 -10 9 -19 7 -34 -8 -12 -10 -24 -16 -29 -12 -4 4 -4 1 0 -6 6 -9 3 -12
-9 -10 -10 2 -20 -3 -22 -9 -3 -7 0 -13 7 -13 6 0 8 5 4 12 -4 7 -3 8 5 4 6
-4 9 -11 6 -16 -8 -12 -45 -8 -38 5 3 5 0 4 -8 -3 -12 -11 -12 -14 1 -22 8 -5
10 -10 4 -10 -5 0 -16 6 -23 13 -12 10 -13 9 -7 -7 6 -17 5 -17 -11 -5 -15 12
-16 12 -10 -3 4 -11 2 -15 -6 -13 -15 6 -92 -37 -92 -50 -1 -14 -24 -52 -25
-40 0 6 5 16 12 23 9 9 9 12 0 12 -12 0 -37 -47 -33 -63 0 -4 -7 -4 -16 1 -22
12 -43 5 -43 -14 0 -8 -3 -13 -7 -12 -17 3 -43 -15 -36 -25 4 -7 0 -8 -11 -4
-14 6 -17 3 -12 -9 6 -15 4 -15 -11 -3 -15 12 -16 12 -10 -5 6 -15 5 -17 -6
-8 -10 9 -19 8 -35 -4 -12 -8 -26 -13 -30 -10 -4 2 -14 0 -22 -6 -12 -8 -12
-9 3 -4 11 4 16 2 11 -5 -3 -6 -17 -8 -31 -4 -16 4 -22 2 -18 -5 3 -5 2 -10
-4 -10 -6 0 -8 -8 -4 -17 5 -15 3 -15 -11 2 l-18 20 7 -20 c5 -16 4 -18 -6 -7
-17 16 -29 15 -29 -2 0 -16 -34 -31 -49 -22 -14 9 -39 -4 -44 -22 -4 -15 -5
-15 -6 0 -1 21 -31 13 -31 -7 0 -8 -4 -17 -10 -20 -6 -4 -7 1 -3 12 6 15 4 16
-9 6 -8 -7 -18 -10 -21 -6 -4 3 -7 1 -7 -6 0 -8 -6 -11 -16 -7 -15 6 -15 4 -3
-10 13 -16 12 -16 -10 -5 -19 11 -22 11 -16 0 6 -9 3 -11 -9 -6 -11 4 -15 3
-10 -4 4 -8 -1 -9 -17 -4 -22 7 -23 7 -9 -10 14 -17 14 -17 -8 -6 -18 10 -23
9 -28 -3 -3 -9 -12 -12 -22 -8 -15 5 -15 4 -3 -11 7 -9 18 -14 25 -10 6 3 7 2
3 -2 -10 -12 -38 -15 -31 -4 6 10 -7 12 -30 3 -8 -3 -12 -12 -9 -21 5 -12 3
-14 -7 -8 -10 6 -12 4 -7 -9 4 -9 3 -15 -2 -11 -5 3 -11 2 -14 -2 -2 -5 -2 -2
-1 4 3 10 -1 10 -16 1 -10 -7 -16 -17 -12 -23 3 -5 -3 -3 -13 5 -15 12 -17 12
-10 1 6 -11 2 -13 -18 -9 -42 8 -74 -41 -42 -64 5 -4 0 -6 -12 -5 -17 1 -19 4
-11 14 7 8 7 13 0 13 -16 0 -22 -26 -9 -40 9 -9 9 -11 1 -7 -7 4 -14 0 -17 -8
-4 -10 -1 -12 11 -9 9 2 7 -1 -6 -7 -12 -7 -21 -17 -19 -23 2 -6 -3 -17 -12
-23 -14 -11 -14 -14 -1 -22 8 -5 18 -7 24 -4 5 3 6 1 3 -4 -4 -6 -18 -8 -33
-5 -21 4 -25 1 -22 -14 2 -11 10 -18 17 -16 7 1 10 -2 6 -8 -5 -8 -11 -7 -21
1 -17 14 -17 14 -36 -26 -16 -32 -13 -60 4 -49 7 5 8 2 3 -5 -5 -9 -10 -10
-18 -2 -7 7 -16 4 -29 -11 -24 -28 -23 -36 1 -14 14 13 21 14 27 5 4 -8 3 -10
-5 -5 -6 4 -14 0 -17 -8 -3 -9 -13 -16 -22 -16 -8 0 -12 -3 -9 -6 3 -4 1 -16
-5 -28 -7 -11 -11 -24 -10 -29 1 -4 -3 -7 -9 -7 -5 0 -7 -5 -4 -10 4 -7 14 -6
28 1 17 9 16 6 -6 -15 -19 -18 -27 -32 -22 -44 5 -13 3 -14 -5 -6 -9 9 -9 18
0 35 11 23 11 23 -5 4 -10 -12 -14 -29 -10 -43 4 -17 2 -22 -6 -16 -7 4 -9 3
-5 -4 3 -5 2 -12 -4 -14 -6 -2 -12 -13 -15 -26 -2 -12 -7 -26 -10 -32 -3 -5 0
-20 6 -32 11 -21 11 -22 -4 -9 -15 11 -17 11 -17 -2 0 -8 6 -18 13 -20 7 -4 6
-6 -4 -6 -9 -1 -19 -10 -22 -21 -5 -20 6 -20 2589 -20 l2594 0 0 802 c0 618
-3 805 -13 817 -10 12 -9 13 3 6 12 -6 12 -5 3 5 -12 13 -76 23 -68 10 2 -3
-2 -7 -10 -7 -8 0 -11 5 -8 10 8 14 -19 28 -41 21 -10 -4 -16 -2 -13 3 3 5 -2
9 -11 10 -9 0 -27 3 -40 6 -13 4 -20 2 -17 -4 4 -5 1 -9 -4 -9 -6 0 -11 6 -11
14 0 10 -9 13 -30 11 -16 -2 -30 0 -30 5 0 10 -19 8 -37 -3 -9 -6 -11 -3 -6
10 6 16 5 16 -10 4 -9 -7 -14 -18 -10 -25 4 -6 -1 -5 -10 3 -9 7 -17 19 -17
25 0 6 4 5 9 -3 5 -8 11 -9 15 -3 8 14 -5 22 -30 18 -10 -2 -27 1 -37 6 -28
14 -56 18 -62 7 -4 -5 -12 -9 -18 -9 -8 0 -7 3 2 9 7 5 10 14 6 20 -5 9 -10 9
-21 0 -8 -6 -14 -7 -14 -2 0 11 -44 33 -63 33 -7 -1 -1 -7 13 -15 14 -8 19
-14 13 -15 -7 0 -22 9 -34 21 -11 11 -27 18 -35 15 -8 -3 -14 -2 -14 3 0 4 -6
8 -12 9 -20 1 -49 9 -95 25 -24 8 -40 11 -37 6 10 -17 -9 -9 -22 9 -12 15 -15
15 -24 2 -8 -13 -10 -12 -10 4 0 15 -3 16 -15 6 -13 -11 -14 -10 -9 5 5 13 4
16 -4 11 -7 -4 -12 -2 -12 3 0 6 -5 11 -11 11 -5 0 -8 -4 -5 -9 4 -5 -2 -8
-11 -6 -10 2 -22 4 -26 4 -5 1 -5 6 -1 12 4 8 9 7 15 -2 5 -8 9 -9 9 -3 0 6
-6 17 -14 23 -11 9 -17 8 -29 -3 -13 -14 -16 -14 -21 0 -3 9 -3 20 0 25 3 5 2
9 -3 8 -4 -1 -10 0 -13 1 -7 2 -41 11 -60 14 -8 2 -23 6 -32 10 -40 14 -49 15
-43 6 3 -6 2 -10 -3 -10 -6 0 -13 7 -16 16 -6 15 -8 15 -27 -2 -19 -17 -20
-17 -13 2 4 10 4 16 0 12 -4 -3 -22 -2 -39 3 -23 7 -37 5 -56 -8 -24 -15 -25
-15 -12 0 8 10 12 18 10 20 -39 22 -50 27 -44 18 3 -6 -1 -11 -10 -11 -9 0
-13 5 -9 11 4 7 1 10 -7 7 -8 -3 -13 -14 -13 -26 1 -12 -2 -19 -7 -17 -4 3 -6
14 -4 25 4 18 -10 26 -37 21 -5 0 -8 3 -8 7 0 19 -39 52 -63 54 -14 1 -23 6
-21 10 3 5 11 6 17 2 7 -3 3 2 -7 10 -11 9 -25 16 -30 16 -6 0 -5 -4 2 -9 11
-7 11 -9 -1 -14 -12 -4 -14 0 -11 19 2 13 0 24 -5 24 -5 0 -14 14 -21 30 -7
17 -17 30 -22 30 -6 0 -6 -6 1 -14 9 -11 9 -16 0 -22 -7 -4 -9 -3 -5 4 3 6 2
14 -4 17 -8 5 -7 12 2 23 8 9 8 13 2 9 -7 -4 -15 0 -18 9 -4 10 -2 13 6 8 7
-5 8 -3 2 7 -5 8 -9 16 -10 19 -3 18 -29 60 -37 60 -5 0 -4 -6 2 -14 9 -10 8
-16 -3 -26 -13 -10 -15 -8 -11 9 2 12 -1 21 -7 21 -7 0 -3 7 8 16 18 14 18 15
-6 9 -19 -5 -21 -4 -10 4 12 8 12 13 2 23 -9 9 -12 9 -12 0 0 -7 -5 -12 -10
-12 -7 0 -7 7 1 21 10 19 8 20 -10 14 -17 -5 -20 -3 -14 12 6 15 4 16 -9 5
-13 -10 -18 -10 -24 -1 -4 8 -3 9 4 5 8 -5 10 -2 6 9 -4 9 -9 13 -12 11 -3 -3
-11 -1 -19 5 -9 9 -13 8 -13 0 0 -6 -5 -11 -11 -11 -5 0 -7 5 -3 12 5 8 1 9
-12 4 -15 -6 -17 -5 -6 5 15 16 16 33 1 23 -8 -4 -9 1 -4 15 8 25 -11 54 -29
45 -6 -3 -1 3 12 14 25 23 29 34 9 26 -8 -3 -14 2 -14 10 0 8 6 12 13 9 6 -2
15 1 20 8 5 8 3 10 -7 4 -12 -8 -12 -6 0 8 9 11 10 17 2 17 -6 0 -11 5 -11 11
0 5 4 8 9 5 5 -3 8 12 7 33 0 22 2 37 7 34 10 -6 9 5 -4 29 -8 16 -8 19 1 13
9 -5 10 -1 5 14 -3 11 -2 21 3 21 5 0 9 12 8 28 -1 23 3 27 26 27 41 1 65 29
63 73 -3 54 -8 65 -30 80 -13 9 -15 12 -4 8 12 -3 19 3 22 17 2 12 8 31 12 41
6 14 5 17 -3 12 -7 -4 -12 -2 -12 3 0 6 7 11 15 11 18 0 19 12 4 27 -8 8 -7
13 2 18 8 5 10 4 5 -3 -4 -7 -5 -12 -2 -12 3 0 10 9 17 21 10 19 9 20 -13 14
-16 -4 -19 -3 -9 3 7 5 14 23 14 40 1 17 5 28 9 26 3 -2 5 -17 2 -32 -3 -19
-2 -23 5 -13 5 8 7 23 5 35 -2 11 2 24 9 28 9 6 8 8 -3 8 -12 0 -12 2 -2 9 7
4 15 19 17 32 1 13 6 32 10 42 4 10 3 17 -5 17 -6 0 -9 -4 -5 -9 3 -6 -5 -15
-17 -21 -22 -11 -22 -10 -4 4 11 9 16 16 12 16 -5 0 -2 7 5 17 16 18 20 73 7
73 -5 0 -6 6 -1 13 11 16 12 67 1 67 -4 0 -8 5 -8 11 0 5 5 7 11 3 8 -4 8 -1
1 12 -5 11 -7 25 -4 33 3 10 0 11 -9 5 -11 -6 -12 -5 -2 7 13 16 12 36 0 57
-5 6 -5 12 -1 12 3 0 1 7 -6 15 -7 9 -19 14 -26 11 -6 -2 -22 5 -34 16 -16 15
-25 17 -33 9 -14 -14 -44 -14 -52 -1 -4 6 -1 9 7 8 7 -2 13 4 13 12 0 8 5 18
10 22 6 5 5 8 -2 8 -7 0 -13 5 -13 11 0 5 4 8 8 5 5 -3 8 15 8 39 0 24 -3 42
-7 40 -4 -3 -9 4 -12 15 -3 11 -2 18 2 16 4 -3 7 34 7 81 -1 60 -5 88 -14 91
-6 2 -12 8 -12 13 0 6 4 8 8 5 4 -2 9 7 10 20 1 17 -2 23 -10 18 -7 -5 -8 -3
-3 7 14 22 13 50 -1 45 -8 -3 -11 0 -7 9 3 8 8 13 12 10 5 -2 7 8 5 23 -1 15
-3 27 -4 27 -1 0 -7 25 -14 62 -1 7 -5 15 -8 19 -4 3 -4 13 0 22 5 15 4 16
-13 2 -17 -14 -18 -14 -5 9 11 21 10 23 -4 18 -8 -3 -18 -1 -22 5 -4 7 -3 8 4
4 7 -4 12 -2 12 4 0 6 5 8 13 4 8 -6 8 -3 -1 9 -8 9 -11 21 -7 27 3 5 2 10 -2
10 -5 0 -17 6 -28 13 -14 11 -15 16 -5 22 8 5 11 4 7 -2 -4 -6 -1 -13 6 -16 9
-3 13 6 13 28 0 19 -4 31 -8 29 -4 -3 -8 0 -8 5 0 6 5 11 10 11 6 0 10 5 10
11 0 5 -4 8 -9 5 -5 -3 -12 1 -15 10 -3 8 -2 13 3 10 4 -3 6 6 3 19 -2 14 -8
25 -13 25 -5 0 -9 5 -9 11 0 5 6 7 13 3 8 -5 8 -2 -2 9 -14 18 -26 24 -17 8 3
-5 -2 -15 -12 -22 -16 -13 -16 -13 -2 5 14 18 13 19 -5 13 -16 -6 -15 -3 5 13
23 18 23 20 5 20 -19 1 -19 2 -1 9 14 5 16 10 8 15 -7 4 -10 12 -7 17 3 5 0 6
-8 3 -11 -4 -15 2 -14 18 0 37 -9 71 -38 134 -24 52 -28 57 -39 41 -7 -9 -16
-14 -19 -11 -3 4 1 13 9 21 13 14 13 18 -6 35 -12 11 -27 18 -34 15 -7 -3 -19
-1 -27 5 -11 8 -11 9 3 4 10 -3 20 -1 23 4 4 6 -1 10 -10 10 -10 0 -13 5 -9
13 5 8 2 7 -9 -2 -10 -8 -20 -11 -24 -7 -3 3 -1 6 5 6 7 0 12 5 12 11 0 6 -6
9 -12 6 -7 -2 -21 0 -30 5 -14 7 -16 14 -8 36 10 26 9 26 -6 7 -16 -20 -16
-20 -10 2 4 12 2 24 -4 28 -6 3 -8 10 -5 15 3 4 -4 6 -15 3 -17 -4 -19 -2 -13
13 6 17 5 17 -10 5 -9 -7 -14 -18 -10 -25 3 -6 2 -7 -3 -3 -5 5 -9 14 -9 20
-1 7 -7 11 -14 9 -7 -1 -10 2 -6 8 5 8 11 7 21 -1 10 -8 14 -8 14 0 0 10 -13
15 -25 9 -2 -2 -12 8 -21 20 -12 17 -19 21 -27 13 -14 -14 -27 -14 -27 0 0 5
5 7 10 4 6 -3 10 -2 10 4 0 9 -44 29 -46 20 0 -2 -8 4 -18 14 -10 9 -23 17
-29 17 -8 0 -8 -3 1 -9 11 -7 10 -9 -3 -14 -9 -4 -14 -3 -11 1 2 4 1 14 -5 22
-7 13 -9 12 -9 -2 0 -10 -4 -18 -10 -18 -5 0 -7 6 -4 14 3 9 -4 20 -18 27 -30
17 -40 17 -56 2 -15 -14 -32 -9 -32 10 0 8 3 8 9 -2 5 -7 11 -9 14 -5 8 14
-16 29 -41 28 -31 -2 -49 -19 -28 -27 11 -4 16 -1 16 10 0 9 3 14 6 10 4 -3 4
-14 0 -23 -6 -15 -8 -15 -33 1 -20 14 -25 14 -21 3 4 -9 0 -15 -8 -15 -8 0
-13 6 -10 14 3 7 1 13 -3 13 -5 0 -11 -5 -13 -11 -3 -8 -9 -6 -20 5 -12 11
-18 12 -20 4 -4 -10 -10 -10 -31 -1 -31 14 -35 7 -9 -14 15 -13 15 -13 -5 -3
-13 6 -23 18 -23 27 0 15 -2 15 -19 -1 -17 -15 -19 -15 -32 1 -13 16 -12 17 3
5 11 -9 18 -10 23 -2 3 5 -1 11 -9 11 -18 2 -35 5 -38 9 -9 7 -50 5 -55 -3z
m52 -7 c3 -5 1 -10 -4 -10 -6 0 -11 5 -11 10 0 6 2 10 4 10 3 0 8 -4 11 -10z
m-222 -15 c-3 -9 -8 -14 -10 -11 -3 3 -2 9 2 15 9 16 15 13 8 -4z m68 -2 c7
-10 9 -15 5 -11 -5 4 -15 3 -22 -3 -11 -9 -13 2 -5 29 2 6 10 1 22 -15z m89
11 c0 -8 -19 -13 -24 -6 -3 5 1 9 9 9 8 0 15 -2 15 -3z m450 -48 c0 -2 -7 -7
-16 -10 -8 -3 -12 -2 -9 4 6 10 25 14 25 6z m-943 -23 c-4 -3 -1 -13 6 -22 11
-14 10 -14 -5 -2 -16 12 -16 31 -1 31 4 0 3 -3 0 -7z m44 -26 c-10 -9 -11 -8
-5 6 3 10 9 15 12 12 3 -3 0 -11 -7 -18z m974 3 c-3 -5 -12 -10 -18 -10 -7 0
-6 4 3 10 19 12 23 12 15 0z m40 0 c3 -5 1 -10 -4 -10 -6 0 -11 5 -11 10 0 6
2 10 4 10 3 0 8 -4 11 -10z m-1145 -40 c0 -5 -5 -10 -11 -10 -5 0 -7 5 -4 10
3 6 8 10 11 10 2 0 4 -4 4 -10z m1300 -75 c0 -7 -30 -13 -34 -7 -3 4 4 9 15 9
10 1 19 0 19 -2z m-1516 -40 c-10 -8 -23 -14 -29 -14 -5 0 -1 6 9 14 11 8 24
15 30 15 5 0 1 -7 -10 -15z m9 -20 c-3 -9 -8 -14 -10 -11 -3 3 -2 9 2 15 9 16
15 13 8 -4z m-23 -59 c0 -2 -8 -10 -17 -17 -16 -13 -17 -12 -4 4 13 16 21 21
21 13z m1690 -30 c0 -2 -7 -7 -16 -10 -8 -3 -12 -2 -9 4 6 10 25 14 25 6z m30
-61 c0 -5 -5 -3 -10 5 -5 8 -10 20 -10 25 0 6 5 3 10 -5 5 -8 10 -19 10 -25z
m-1836 17 c3 -5 -1 -9 -9 -9 -8 0 -12 4 -9 9 3 4 7 8 9 8 2 0 6 -4 9 -8z m-3
-39 c13 -16 12 -17 -3 -4 -16 12 -18 11 -18 -4 0 -10 -3 -16 -6 -12 -6 6 2 37
9 37 3 0 11 -8 18 -17z m1824 7 c3 -5 1 -10 -4 -10 -6 0 -11 5 -11 10 0 6 2
10 4 10 3 0 8 -4 11 -10z m37 -28 c4 -13 -1 -18 -16 -20 -15 -1 -17 1 -7 7 8
5 11 16 8 26 -4 9 -3 14 2 11 5 -3 11 -14 13 -24z m13 -42 c-3 -5 -12 -10 -18
-10 -7 0 -6 4 3 10 19 12 23 12 15 0z m9 -52 c-3 -4 -11 -8 -17 -7 -9 0 -9 2
0 5 7 3 9 13 6 22 -4 14 -3 14 5 2 6 -8 8 -18 6 -22z m-2004 -61 c0 -2 -9 -14
-20 -27 -11 -13 -20 -19 -20 -15 0 5 7 17 17 27 15 17 23 22 23 15z m4 -59
c-3 -5 -9 -6 -14 -3 -4 3 -10 -2 -14 -10 -6 -17 -26 -20 -26 -4 0 5 4 8 9 5 5
-3 11 0 14 7 3 8 12 14 21 14 8 0 13 -4 10 -9z m-40 -56 c3 -5 -1 -9 -9 -9 -8
0 -12 4 -9 9 3 4 7 8 9 8 2 0 6 -4 9 -8z m-17 -41 c0 -11 -7 -17 -14 -14 -9 4
-9 8 0 19 16 17 16 17 14 -5z m2118 -21 c3 -5 1 -10 -4 -10 -6 0 -11 5 -11 10
0 6 2 10 4 10 3 0 8 -4 11 -10z m50 -180 c3 -6 -1 -7 -9 -4 -18 7 -21 14 -7
14 6 0 13 -4 16 -10z m-10 -20 c3 -5 1 -10 -4 -10 -6 0 -11 5 -11 10 0 6 2 10
4 10 3 0 8 -4 11 -10z m20 -30 c3 -6 -1 -7 -9 -4 -18 7 -21 14 -7 14 6 0 13
-4 16 -10z m12 -44 c0 -8 -6 -12 -15 -9 -11 5 -11 7 0 14 7 5 13 9 14 9 0 0 1
-6 1 -14z m-2207 -10 c0 -2 -7 -7 -16 -10 -8 -3 -12 -2 -9 4 6 10 25 14 25 6z
m2175 -25 c3 -5 2 -12 -3 -15 -5 -3 -9 1 -9 9 0 17 3 19 12 6z m-2185 -106 c0
-12 -19 -12 -23 0 -4 9 -1 12 9 8 7 -3 14 -7 14 -8z m2224 -54 c-2 -3 -12 3
-22 13 -16 17 -16 18 5 5 12 -7 20 -15 17 -18z m1 -20 c3 -5 2 -12 -3 -15 -5
-3 -9 1 -9 9 0 17 3 19 12 6z m3 -56 c-3 -3 -9 2 -12 12 -6 14 -5 15 5 6 7 -7
10 -15 7 -18z m-24 -1 c3 -8 2 -12 -4 -9 -6 3 -10 10 -10 16 0 14 7 11 14 -7z
m-2197 -29 c0 -8 -4 -12 -9 -9 -5 3 -6 10 -3 15 9 13 12 11 12 -6z m2207 -3
c3 -5 -1 -9 -9 -9 -8 0 -12 4 -9 9 3 4 7 8 9 8 2 0 6 -4 9 -8z m-2214 -38 c0
-8 -19 -13 -24 -6 -3 5 1 9 9 9 8 0 15 -2 15 -3z m2214 -22 c3 -5 -1 -9 -9 -9
-8 0 -12 4 -9 9 3 4 7 8 9 8 2 0 6 -4 9 -8z m-2209 -93 c-4 -6 1 -16 10 -23
16 -11 16 -13 -2 -26 -14 -11 -16 -11 -6 0 10 10 9 16 -4 25 -14 10 -12 35 3
35 3 0 2 -5 -1 -11z m25 -69 c0 -5 -5 -10 -11 -10 -5 0 -7 5 -4 10 3 6 8 10
11 10 2 0 4 -4 4 -10z m2260 -4 c0 -2 -8 -10 -17 -17 -16 -13 -17 -12 -4 4 13
16 21 21 21 13z m58 -19 c-1 -2 3 -11 11 -20 17 -22 8 -22 -13 -1 -9 8 -13 20
-10 25 3 6 8 8 11 5 2 -2 3 -6 1 -9z m-2303 -17 c3 -5 1 -10 -4 -10 -6 0 -11
5 -11 10 0 6 2 10 4 10 3 0 8 -4 11 -10z m-1 -58 c3 -5 -1 -9 -9 -9 -8 0 -12
4 -9 9 3 4 7 8 9 8 2 0 6 -4 9 -8z m2306 -2 c0 -5 -2 -10 -4 -10 -3 0 -8 5
-11 10 -3 6 -1 10 4 10 6 0 11 -4 11 -10z m20 -34 c0 -3 -4 -8 -10 -11 -5 -3
-10 -1 -10 4 0 6 5 11 10 11 6 0 10 -2 10 -4z m-1 -59 c0 -9 -2 -8 -6 1 -2 6
-10 9 -15 6 -7 -4 -8 -2 -4 5 9 13 26 5 25 -12z m1 -31 c-7 -7 -13 -7 -20 0
-6 6 -3 10 10 10 13 0 16 -4 10 -10z m-2380 -36 c0 -5 -5 -10 -11 -10 -5 0 -7
5 -4 10 3 6 8 10 11 10 2 0 4 -4 4 -10z m40 4 c0 -8 -19 -13 -24 -6 -3 5 1 9
9 9 8 0 15 -2 15 -3z m2339 -17 c0 -9 -2 -8 -6 1 -2 6 -10 9 -15 6 -7 -4 -8
-2 -4 5 9 13 26 5 25 -12z m-2385 -117 c-6 -6 -10 -3 -10 10 0 13 4 16 10 10
7 -7 7 -13 0 -20z m2381 -11 c-4 -5 -12 -9 -18 -8 -9 0 -8 2 1 6 6 2 9 10 6
15 -4 7 -2 8 5 4 6 -4 9 -12 6 -17z m-2379 -21 c3 -4 -1 -5 -10 -4 -8 1 -18 5
-22 8 -3 4 1 5 10 4 8 -1 18 -5 22 -8z m19 -88 c-3 -5 -12 -10 -18 -10 -7 0
-6 4 3 10 19 12 23 12 15 0z m5 -84 c0 -3 -4 -8 -10 -11 -5 -3 -10 -1 -10 4 0
6 5 11 10 11 6 0 10 -2 10 -4z m2274 -4 c3 -5 -1 -9 -9 -9 -8 0 -12 4 -9 9 3
4 7 8 9 8 2 0 6 -4 9 -8z m-2269 -40 c-3 -3 -11 0 -18 7 -9 10 -8 11 6 5 10
-3 15 -9 12 -12z m2277 11 c-6 -2 -9 -10 -6 -15 4 -7 2 -8 -5 -4 -13 9 -5 26
12 25 9 0 8 -2 -1 -6z m-2228 -89 c3 -8 2 -12 -4 -9 -6 3 -10 10 -10 16 0 14
7 11 14 -7z m2226 7 c0 -6 -4 -12 -8 -15 -5 -3 -9 1 -9 9 0 8 4 15 9 15 4 0 8
-4 8 -9z m7 -47 c-3 -3 -12 -4 -19 -1 -8 3 -5 6 6 6 11 1 17 -2 13 -5z m9 -29
c-1 -9 -6 -15 -11 -14 -4 0 -11 -5 -15 -11 -5 -8 -9 -7 -13 5 -4 9 -3 14 3 10
6 -3 13 1 16 9 8 20 23 21 20 1z m-116 -175 c0 -5 -2 -10 -4 -10 -3 0 -8 5
-11 10 -3 6 -1 10 4 10 6 0 11 -4 11 -10z m-2023 -36 c-3 -3 -12 -4 -19 -1 -8
3 -5 6 6 6 11 1 17 -2 13 -5z m58 -4 c3 -5 1 -10 -4 -10 -6 0 -11 5 -11 10 0
6 2 10 4 10 3 0 8 -4 11 -10z m-69 -26 c20 -18 22 -23 8 -15 -12 6 -25 7 -30
3 -5 -4 -6 -3 -2 2 4 5 3 15 -3 23 -18 21 -4 15 27 -13z m194 -134 c0 -5 -2
-10 -4 -10 -3 0 -8 5 -11 10 -3 6 -1 10 4 10 6 0 11 -4 11 -10z m1840 -16 c0
-8 -19 -13 -24 -6 -3 5 1 9 9 9 8 0 15 -2 15 -3z m-1804 -29 c-1 -8 -5 -17 -8
-21 -5 -4 -4 16 1 34 3 9 9 -1 7 -13z m1864 -55 c0 -5 -5 -10 -11 -10 -5 0 -7
5 -4 10 3 6 8 10 11 10 2 0 4 -4 4 -10z m-1769 -93 c-10 -9 -11 -8 -5 6 3 10
9 15 12 12 3 -3 0 -11 -7 -18z m1907 -82 c-3 -3 -9 2 -12 12 -6 14 -5 15 5 6
7 -7 10 -15 7 -18z m-1823 -174 c3 -5 2 -12 -3 -15 -5 -3 -9 1 -9 9 0 17 3 19
12 6z m1982 -10 c0 -11 -5 -18 -9 -15 -4 3 -5 11 -1 19 7 21 12 19 10 -4z
m-1999 -36 c-3 -3 -9 2 -12 12 -6 14 -5 15 5 6 7 -7 10 -15 7 -18z m2033 -12
c13 -16 12 -17 -3 -4 -17 13 -22 21 -14 21 2 0 10 -8 17 -17z m118 -29 c-13
-16 -29 -18 -29 -4 0 6 6 9 13 8 6 -2 11 3 9 10 -1 8 2 11 8 7 8 -5 7 -11 -1
-21z m-2103 -7 c4 -3 -4 -4 -16 -2 -30 6 -40 16 -12 12 12 -2 24 -6 28 -10z
m2171 -2 c0 -8 -4 -15 -9 -15 -10 0 -11 14 -1 23 9 10 10 9 10 -8z m38 -5 c-3
-5 -12 -10 -18 -10 -7 0 -6 4 3 10 19 12 23 12 15 0z m120 -19 c3 -5 2 -12 -3
-15 -5 -3 -9 1 -9 9 0 17 3 19 12 6z m-115 -11 c0 -5 -5 -10 -11 -10 -5 0 -7
5 -4 10 3 6 8 10 11 10 2 0 4 -4 4 -10z m60 4 c0 -8 -19 -13 -24 -6 -3 5 1 9
9 9 8 0 15 -2 15 -3z m100 -6 c0 -6 -3 -8 -7 -5 -3 4 -13 1 -22 -6 -14 -11
-14 -10 -2 6 15 20 31 22 31 5z m37 -14 c-3 -3 -12 -4 -19 -1 -8 3 -5 6 6 6
11 1 17 -2 13 -5z m243 -102 c0 -5 -7 -9 -15 -9 -8 0 -12 4 -9 9 3 4 9 8 15 8
5 0 9 -4 9 -8z m40 -8 c0 -8 -19 -13 -24 -6 -3 5 1 9 9 9 8 0 15 -2 15 -3z
m-2710 -30 c0 -8 -19 -13 -24 -6 -3 5 1 9 9 9 8 0 15 -2 15 -3z m2827 -29 c0
-8 -4 -12 -9 -9 -5 3 -6 10 -3 15 9 13 12 11 12 -6z m77 -11 c3 -8 2 -12 -4
-9 -6 3 -10 10 -10 16 0 14 7 11 14 -7z m-2919 -23 c3 -5 2 -12 -3 -15 -5 -3
-9 1 -9 9 0 17 3 19 12 6z m3016 -14 c-10 -9 -11 -8 -5 6 3 10 9 15 12 12 3
-3 0 -11 -7 -18z m133 -25 c3 -5 -1 -9 -9 -9 -8 0 -12 4 -9 9 3 4 7 8 9 8 2 0
6 -4 9 -8z m61 -2 c3 -6 -1 -7 -9 -4 -18 7 -21 14 -7 14 6 0 13 -4 16 -10z
m-27 -25 c-3 -3 -9 2 -12 12 -6 14 -5 15 5 6 7 -7 10 -15 7 -18z m91 12 c8
-10 7 -14 -2 -14 -8 0 -14 6 -14 14 0 7 1 13 2 13 2 0 8 -6 14 -13z m-3303
-15 c1 -7 0 -8 -3 -2 -2 5 -9 8 -14 4 -5 -3 -9 0 -9 6 0 15 23 7 26 -8z m3374
-2 c0 -5 -5 -10 -11 -10 -5 0 -7 5 -4 10 3 6 8 10 11 10 2 0 4 -4 4 -10z m72
-42 c-8 -8 -9 -4 -5 13 4 13 8 18 11 10 2 -7 -1 -18 -6 -23z m-3460 -77 c-4
-10 -7 -11 -10 -3 -2 7 -9 9 -14 6 -6 -4 -8 -3 -5 3 10 16 36 11 29 -6z m-62
-107 c0 -8 -19 -13 -24 -6 -3 5 1 9 9 9 8 0 15 -2 15 -3z m-70 -78 c0 -3 -4
-8 -10 -11 -5 -3 -10 -1 -10 4 0 6 5 11 10 11 6 0 10 -2 10 -4z m-80 -46 c0
-5 -5 -10 -11 -10 -5 0 -7 5 -4 10 3 6 8 10 11 10 2 0 4 -4 4 -10z m-20 -24
c0 -2 -8 -10 -17 -17 -16 -13 -17 -12 -4 4 13 16 21 21 21 13z m-140 -96 c0
-4 -7 -7 -15 -6 -23 3 -26 12 -5 13 11 1 20 -2 20 -7z m-41 -23 c0 -8 -2 -8
-6 1 -4 10 -8 10 -19 1 -9 -7 -14 -8 -14 -1 0 12 21 22 33 15 4 -2 7 -10 6
-16z m-143 -105 c-17 -16 -18 -16 -5 5 7 12 15 20 18 17 3 -2 -3 -12 -13 -22z
m-116 -57 c0 -2 -10 -9 -22 -15 -22 -11 -22 -10 -4 4 21 17 26 19 26 11z m-78
-49 c7 4 8 2 4 -5 -9 -13 -26 -5 -25 12 0 9 2 8 6 -1 2 -6 10 -9 15 -6z m-171
-59 c-10 -9 -11 -8 -5 6 3 10 9 15 12 12 3 -3 0 -11 -7 -18z m-31 -22 c14 -19
14 -19 -2 -6 -10 7 -18 18 -18 24 0 6 1 8 3 6 1 -2 9 -13 17 -24z m-60 -19 c0
-3 -4 -8 -10 -11 -5 -3 -10 -1 -10 4 0 6 5 11 10 11 6 0 10 -2 10 -4z m-320
-151 c11 -13 10 -14 -4 -9 -9 3 -16 10 -16 15 0 13 6 11 20 -6z m75 5 c3 -5 1
-10 -4 -10 -6 0 -11 5 -11 10 0 6 2 10 4 10 3 0 8 -4 11 -10z m-97 -35 c-3 -3
-9 2 -12 12 -6 14 -5 15 5 6 7 -7 10 -15 7 -18z m33 -18 c-10 -9 -11 -8 -5 6
3 10 9 15 12 12 3 -3 0 -11 -7 -18z m-66 -67 c-3 -5 -12 -10 -18 -10 -7 0 -6
4 3 10 19 12 23 12 15 0z m-85 -114 c0 -3 -4 -8 -10 -11 -5 -3 -10 -1 -10 4 0
6 5 11 10 11 6 0 10 -2 10 -4z m17 -21 c0 -8 -4 -12 -9 -9 -5 3 -6 10 -3 15 9
13 12 11 12 -6z m-103 -140 c-4 -8 -11 -15 -16 -15 -6 0 -5 6 2 15 7 8 14 15
16 15 2 0 1 -7 -2 -15z m-39 -144 c3 -5 2 -12 -3 -15 -5 -3 -9 1 -9 9 0 17 3
19 12 6z m-28 -8 c-4 -3 -1 -13 6 -22 11 -14 10 -14 -5 -2 -16 12 -16 31 -1
31 4 0 3 -3 0 -7z m3 -51 c0 -5 -7 -9 -15 -9 -8 0 -15 4 -15 9 0 4 7 8 15 8 8
0 15 -4 15 -8z m-30 -82 c0 -5 -4 -10 -10 -10 -5 0 -10 5 -10 10 0 6 5 10 10
10 6 0 10 -4 10 -10z"/>
<path d="M3226 5288 c3 -5 10 -6 15 -3 13 9 11 12 -6 12 -8 0 -12 -4 -9 -9z"/>
<path d="M3600 5016 c0 -2 7 -7 16 -10 8 -3 12 -2 9 4 -6 10 -25 14 -25 6z"/>
<path d="M4031 3694 c6 -7 16 -11 21 -8 11 7 3 17 -18 20 -12 2 -13 -1 -3 -12z"/>
<path d="M3905 2540 c3 -5 8 -10 11 -10 2 0 4 5 4 10 0 6 -5 10 -11 10 -5 0
-7 -4 -4 -10z"/>
<path d="M2233 2085 c0 -8 4 -15 9 -15 4 0 8 4 8 9 0 6 -4 12 -8 15 -5 3 -9
-1 -9 -9z"/>
<path d="M2235 1700 c-3 -5 -1 -10 4 -10 6 0 11 5 11 10 0 6 -2 10 -4 10 -3 0
-8 -4 -11 -10z"/>
<path d="M1717 1123 c-4 -3 -7 -11 -7 -17 0 -6 5 -5 12 2 6 6 9 14 7 17 -3 3
-9 2 -12 -2z"/>
<path d="M1355 930 c-3 -5 -2 -10 4 -10 5 0 13 5 16 10 3 6 2 10 -4 10 -5 0
-13 -4 -16 -10z"/>
</g>
</svg>
